<svg width="154" height="96" viewBox="0 0 154 96" fill="none" xmlns="http://www.w3.org/2000/svg">
<path d="M0.835227 37V2.09091H6.10227V18.7614H6.52841L21.1705 2.09091H27.8011L13.7216 17.8068L27.8523 37H21.5114L10.2273 21.4034L6.10227 26.142V37H0.835227ZM39.9205 37.5795C38.2614 37.5795 36.7614 37.2727 35.4205 36.6591C34.0795 36.0341 33.017 35.1307 32.233 33.9489C31.4602 32.767 31.0739 31.3182 31.0739 29.6023C31.0739 28.125 31.358 26.9091 31.9261 25.9545C32.4943 25 33.2614 24.2443 34.2273 23.6875C35.1932 23.1307 36.2727 22.7102 37.4659 22.4261C38.6591 22.142 39.875 21.9261 41.1136 21.7784C42.6818 21.5966 43.9545 21.4489 44.9318 21.3352C45.9091 21.2102 46.6193 21.0114 47.0625 20.7386C47.5057 20.4659 47.7273 20.0227 47.7273 19.4091V19.2898C47.7273 17.8011 47.3068 16.6477 46.4659 15.8295C45.6364 15.0114 44.3977 14.6023 42.75 14.6023C41.0341 14.6023 39.6818 14.983 38.6932 15.7443C37.7159 16.4943 37.0398 17.3295 36.6648 18.25L31.875 17.1591C32.4432 15.5682 33.2727 14.2841 34.3636 13.3068C35.4659 12.3182 36.733 11.6023 38.1648 11.1591C39.5966 10.7045 41.1023 10.4773 42.6818 10.4773C43.7273 10.4773 44.8352 10.6023 46.0057 10.8523C47.1875 11.0909 48.2898 11.5341 49.3125 12.1818C50.3466 12.8295 51.1932 13.7557 51.8523 14.9602C52.5114 16.1534 52.8409 17.7045 52.8409 19.6136V37H47.8636V33.4205H47.6591C47.3295 34.0795 46.8352 34.7273 46.1761 35.3636C45.517 36 44.6705 36.5284 43.6364 36.9489C42.6023 37.3693 41.3636 37.5795 39.9205 37.5795ZM41.0284 33.4886C42.4375 33.4886 43.642 33.2102 44.642 32.6534C45.6534 32.0966 46.4205 31.3693 46.9432 30.4716C47.4773 29.5625 47.7443 28.5909 47.7443 27.5568V24.1818C47.5625 24.3636 47.2102 24.5341 46.6875 24.6932C46.1761 24.8409 45.5909 24.9716 44.9318 25.0852C44.2727 25.1875 43.6307 25.2841 43.0057 25.375C42.3807 25.4545 41.858 25.5227 41.4375 25.5795C40.4489 25.7045 39.5455 25.9148 38.7273 26.2102C37.9205 26.5057 37.2727 26.9318 36.7841 27.4886C36.3068 28.0341 36.0682 28.7614 36.0682 29.6705C36.0682 30.9318 36.5341 31.8864 37.4659 32.5341C38.3977 33.1705 39.5852 33.4886 41.0284 33.4886ZM70.6577 37.5284C68.1236 37.5284 65.9418 36.9545 64.1122 35.8068C62.294 34.6477 60.8963 33.0511 59.919 31.017C58.9418 28.983 58.4531 26.6534 58.4531 24.0284C58.4531 21.3693 58.9531 19.0227 59.9531 16.9886C60.9531 14.9432 62.3622 13.3466 64.1804 12.1989C65.9986 11.0511 68.1406 10.4773 70.6065 10.4773C72.5952 10.4773 74.3679 10.8466 75.9247 11.5852C77.4815 12.3125 78.7372 13.3352 79.6918 14.6534C80.6577 15.9716 81.2315 17.5114 81.4134 19.2727H76.4531C76.1804 18.0455 75.5554 16.9886 74.5781 16.1023C73.6122 15.2159 72.3168 14.7727 70.6918 14.7727C69.2713 14.7727 68.027 15.1477 66.9588 15.8977C65.902 16.6364 65.0781 17.6932 64.4872 19.0682C63.8963 20.4318 63.6009 22.0455 63.6009 23.9091C63.6009 25.8182 63.8906 27.4659 64.4702 28.8523C65.0497 30.2386 65.8679 31.3125 66.9247 32.0739C67.9929 32.8352 69.2486 33.2159 70.6918 33.2159C71.6577 33.2159 72.5327 33.0398 73.3168 32.6875C74.1122 32.3239 74.777 31.8068 75.3111 31.1364C75.8565 30.4659 76.2372 29.6591 76.4531 28.7159H81.4134C81.2315 30.4091 80.6804 31.9205 79.7599 33.25C78.8395 34.5795 77.6065 35.625 76.0611 36.3864C74.527 37.1477 72.7259 37.5284 70.6577 37.5284ZM86.8636 37V10.8182H91.9602V37H86.8636ZM89.4375 6.77841C88.5511 6.77841 87.7898 6.48295 87.1534 5.89204C86.5284 5.28977 86.2159 4.57386 86.2159 3.74432C86.2159 2.90341 86.5284 2.1875 87.1534 1.59659C87.7898 0.994317 88.5511 0.693181 89.4375 0.693181C90.3239 0.693181 91.0795 0.994317 91.7045 1.59659C92.3409 2.1875 92.6591 2.90341 92.6591 3.74432C92.6591 4.57386 92.3409 5.28977 91.7045 5.89204C91.0795 6.48295 90.3239 6.77841 89.4375 6.77841ZM109.845 37.5284C107.391 37.5284 105.249 36.9659 103.419 35.8409C101.589 34.7159 100.169 33.142 99.1577 31.1193C98.1463 29.0966 97.6406 26.733 97.6406 24.0284C97.6406 21.3125 98.1463 18.9375 99.1577 16.9034C100.169 14.8693 101.589 13.2898 103.419 12.1648C105.249 11.0398 107.391 10.4773 109.845 10.4773C112.3 10.4773 114.442 11.0398 116.271 12.1648C118.101 13.2898 119.521 14.8693 120.533 16.9034C121.544 18.9375 122.05 21.3125 122.05 24.0284C122.05 26.733 121.544 29.0966 120.533 31.1193C119.521 33.142 118.101 34.7159 116.271 35.8409C114.442 36.9659 112.3 37.5284 109.845 37.5284ZM109.862 33.25C111.453 33.25 112.771 32.8295 113.817 31.9886C114.862 31.1477 115.635 30.0284 116.135 28.6307C116.646 27.233 116.902 25.6932 116.902 24.0114C116.902 22.3409 116.646 20.8068 116.135 19.4091C115.635 18 114.862 16.8693 113.817 16.017C112.771 15.1648 111.453 14.7386 109.862 14.7386C108.26 14.7386 106.93 15.1648 105.874 16.017C104.828 16.8693 104.05 18 103.538 19.4091C103.038 20.8068 102.788 22.3409 102.788 24.0114C102.788 25.6932 103.038 27.233 103.538 28.6307C104.05 30.0284 104.828 31.1477 105.874 31.9886C106.93 32.8295 108.26 33.25 109.862 33.25ZM0.835227 95V60.0909H13.6193C16.0966 60.0909 18.1477 60.5 19.7727 61.3182C21.3977 62.125 22.6136 63.2216 23.4205 64.608C24.2273 65.983 24.6307 67.5341 24.6307 69.2614C24.6307 70.7159 24.3636 71.9432 23.8295 72.9432C23.2955 73.9318 22.5795 74.7273 21.6818 75.3295C20.7955 75.9205 19.8182 76.3523 18.75 76.625V76.9659C19.9091 77.0227 21.0398 77.3977 22.142 78.0909C23.2557 78.7727 24.1761 79.7443 24.9034 81.0057C25.6307 82.267 25.9943 83.8011 25.9943 85.608C25.9943 87.392 25.5739 88.9943 24.733 90.4148C23.9034 91.8239 22.6193 92.9432 20.8807 93.7727C19.142 94.5909 16.9205 95 14.2159 95H0.835227ZM6.10227 90.483H13.7045C16.2273 90.483 18.0341 89.9943 19.125 89.017C20.2159 88.0398 20.7614 86.8182 20.7614 85.3523C20.7614 84.25 20.483 83.2386 19.9261 82.3182C19.3693 81.3977 18.5739 80.6648 17.5398 80.1193C16.517 79.5739 15.3011 79.3011 13.892 79.3011H6.10227V90.483ZM6.10227 75.1932H13.1591C14.3409 75.1932 15.4034 74.9659 16.3466 74.5114C17.3011 74.0568 18.0568 73.4205 18.6136 72.6023C19.1818 71.7727 19.4659 70.7955 19.4659 69.6705C19.4659 68.2273 18.9602 67.017 17.9489 66.0398C16.9375 65.0625 15.3864 64.5739 13.2955 64.5739H6.10227V75.1932ZM39.4517 95.5795C37.7926 95.5795 36.2926 95.2727 34.9517 94.6591C33.6108 94.0341 32.5483 93.1307 31.7642 91.9489C30.9915 90.767 30.6051 89.3182 30.6051 87.6023C30.6051 86.125 30.8892 84.9091 31.4574 83.9545C32.0256 83 32.7926 82.2443 33.7585 81.6875C34.7244 81.1307 35.804 80.7102 36.9972 80.4261C38.1903 80.142 39.4063 79.9261 40.6449 79.7784C42.2131 79.5966 43.4858 79.4489 44.4631 79.3352C45.4403 79.2102 46.1506 79.0114 46.5938 78.7386C47.0369 78.4659 47.2585 78.0227 47.2585 77.4091V77.2898C47.2585 75.8011 46.8381 74.6477 45.9972 73.8295C45.1676 73.0114 43.929 72.6023 42.2812 72.6023C40.5653 72.6023 39.2131 72.983 38.2244 73.7443C37.2472 74.4943 36.571 75.3295 36.196 76.25L31.4062 75.1591C31.9744 73.5682 32.804 72.2841 33.8949 71.3068C34.9972 70.3182 36.2642 69.6023 37.696 69.1591C39.1278 68.7045 40.6335 68.4773 42.2131 68.4773C43.2585 68.4773 44.3665 68.6023 45.5369 68.8523C46.7188 69.0909 47.821 69.5341 48.8438 70.1818C49.8778 70.8295 50.7244 71.7557 51.3835 72.9602C52.0426 74.1534 52.3722 75.7045 52.3722 77.6136V95H47.3949V91.4205H47.1903C46.8608 92.0795 46.3665 92.7273 45.7074 93.3636C45.0483 94 44.2017 94.5284 43.1676 94.9489C42.1335 95.3693 40.8949 95.5795 39.4517 95.5795ZM40.5597 91.4886C41.9688 91.4886 43.1733 91.2102 44.1733 90.6534C45.1847 90.0966 45.9517 89.3693 46.4744 88.4716C47.0085 87.5625 47.2756 86.5909 47.2756 85.5568V82.1818C47.0938 82.3636 46.7415 82.5341 46.2188 82.6932C45.7074 82.8409 45.1222 82.9716 44.4631 83.0852C43.804 83.1875 43.1619 83.2841 42.5369 83.375C41.9119 83.4545 41.3892 83.5227 40.9688 83.5795C39.9801 83.7045 39.0767 83.9148 38.2585 84.2102C37.4517 84.5057 36.804 84.9318 36.3153 85.4886C35.8381 86.0341 35.5994 86.7614 35.5994 87.6705C35.5994 88.9318 36.0653 89.8864 36.9972 90.5341C37.929 91.1705 39.1165 91.4886 40.5597 91.4886ZM71.3821 68.8182V72.9091H57.081V68.8182H71.3821ZM60.9162 62.5455H66.0128V87.3125C66.0128 88.3011 66.1605 89.0455 66.456 89.5455C66.7514 90.0341 67.1321 90.3693 67.598 90.5511C68.0753 90.7216 68.5923 90.8068 69.1491 90.8068C69.5582 90.8068 69.9162 90.7784 70.223 90.7216C70.5298 90.6648 70.7685 90.6193 70.9389 90.5852L71.8594 94.7955C71.5639 94.9091 71.1435 95.0227 70.598 95.1364C70.0526 95.2614 69.3707 95.3295 68.5526 95.3409C67.2116 95.3636 65.9616 95.125 64.8026 94.625C63.6435 94.125 62.706 93.3523 61.9901 92.3068C61.2741 91.2614 60.9162 89.9489 60.9162 88.3693V62.5455ZM77.0199 95V68.8182H82.1165V95H77.0199ZM79.5938 64.7784C78.7074 64.7784 77.946 64.483 77.3097 63.892C76.6847 63.2898 76.3722 62.5739 76.3722 61.7443C76.3722 60.9034 76.6847 60.1875 77.3097 59.5966C77.946 58.9943 78.7074 58.6932 79.5938 58.6932C80.4801 58.6932 81.2358 58.9943 81.8608 59.5966C82.4972 60.1875 82.8153 60.9034 82.8153 61.7443C82.8153 62.5739 82.4972 63.2898 81.8608 63.892C81.2358 64.483 80.4801 64.7784 79.5938 64.7784ZM108.592 75.2102L103.973 76.0284C103.78 75.4375 103.473 74.875 103.053 74.3409C102.643 73.8068 102.087 73.3693 101.382 73.0284C100.678 72.6875 99.7969 72.517 98.7401 72.517C97.2969 72.517 96.0923 72.8409 95.1264 73.4886C94.1605 74.125 93.6776 74.9489 93.6776 75.9602C93.6776 76.8352 94.0014 77.5398 94.6491 78.0739C95.2969 78.608 96.3423 79.0455 97.7855 79.3864L101.945 80.3409C104.354 80.8977 106.149 81.7557 107.331 82.9148C108.513 84.0739 109.104 85.5795 109.104 87.4318C109.104 89 108.649 90.3977 107.74 91.625C106.842 92.8409 105.587 93.7955 103.973 94.4886C102.371 95.1818 100.513 95.5284 98.3991 95.5284C95.4673 95.5284 93.0753 94.9034 91.223 93.6534C89.3707 92.392 88.2344 90.6023 87.8139 88.2841L92.7401 87.5341C93.0469 88.8182 93.6776 89.7898 94.6321 90.4489C95.5866 91.0966 96.831 91.4205 98.3651 91.4205C100.036 91.4205 101.371 91.0739 102.371 90.3807C103.371 89.6761 103.871 88.8182 103.871 87.8068C103.871 86.9886 103.564 86.3011 102.95 85.7443C102.348 85.1875 101.422 84.767 100.172 84.483L95.7401 83.5114C93.2969 82.9545 91.4901 82.0682 90.3196 80.8523C89.1605 79.6364 88.581 78.0966 88.581 76.233C88.581 74.6875 89.0128 73.3352 89.8764 72.1761C90.7401 71.017 91.9332 70.1136 93.456 69.4659C94.9787 68.8068 96.723 68.4773 98.6889 68.4773C101.518 68.4773 103.746 69.0909 105.371 70.3182C106.996 71.5341 108.07 73.1648 108.592 75.2102ZM126.929 68.8182V72.9091H112.628V68.8182H126.929ZM116.463 62.5455H121.56V87.3125C121.56 88.3011 121.707 89.0455 122.003 89.5455C122.298 90.0341 122.679 90.3693 123.145 90.5511C123.622 90.7216 124.139 90.8068 124.696 90.8068C125.105 90.8068 125.463 90.7784 125.77 90.7216C126.077 90.6648 126.315 90.6193 126.486 90.5852L127.406 94.7955C127.111 94.9091 126.69 95.0227 126.145 95.1364C125.599 95.2614 124.918 95.3295 124.099 95.3409C122.759 95.3636 121.509 95.125 120.349 94.625C119.19 94.125 118.253 93.3523 117.537 92.3068C116.821 91.2614 116.463 89.9489 116.463 88.3693V62.5455ZM140.186 95.5795C138.527 95.5795 137.027 95.2727 135.686 94.6591C134.345 94.0341 133.283 93.1307 132.499 91.9489C131.726 90.767 131.339 89.3182 131.339 87.6023C131.339 86.125 131.624 84.9091 132.192 83.9545C132.76 83 133.527 82.2443 134.493 81.6875C135.459 81.1307 136.538 80.7102 137.732 80.4261C138.925 80.142 140.141 79.9261 141.379 79.7784C142.947 79.5966 144.22 79.4489 145.197 79.3352C146.175 79.2102 146.885 79.0114 147.328 78.7386C147.771 78.4659 147.993 78.0227 147.993 77.4091V77.2898C147.993 75.8011 147.572 74.6477 146.732 73.8295C145.902 73.0114 144.663 72.6023 143.016 72.6023C141.3 72.6023 139.947 72.983 138.959 73.7443C137.982 74.4943 137.305 75.3295 136.93 76.25L132.141 75.1591C132.709 73.5682 133.538 72.2841 134.629 71.3068C135.732 70.3182 136.999 69.6023 138.43 69.1591C139.862 68.7045 141.368 68.4773 142.947 68.4773C143.993 68.4773 145.101 68.6023 146.271 68.8523C147.453 69.0909 148.555 69.5341 149.578 70.1818C150.612 70.8295 151.459 71.7557 152.118 72.9602C152.777 74.1534 153.107 75.7045 153.107 77.6136V95H148.129V91.4205H147.925C147.595 92.0795 147.101 92.7273 146.442 93.3636C145.783 94 144.936 94.5284 143.902 94.9489C142.868 95.3693 141.629 95.5795 140.186 95.5795ZM141.294 91.4886C142.703 91.4886 143.908 91.2102 144.908 90.6534C145.919 90.0966 146.686 89.3693 147.209 88.4716C147.743 87.5625 148.01 86.5909 148.01 85.5568V82.1818C147.828 82.3636 147.476 82.5341 146.953 82.6932C146.442 82.8409 145.857 82.9716 145.197 83.0852C144.538 83.1875 143.896 83.2841 143.271 83.375C142.646 83.4545 142.124 83.5227 141.703 83.5795C140.714 83.7045 139.811 83.9148 138.993 84.2102C138.186 84.5057 137.538 84.9318 137.05 85.4886C136.572 86.0341 136.334 86.7614 136.334 87.6705C136.334 88.9318 136.8 89.8864 137.732 90.5341C138.663 91.1705 139.851 91.4886 141.294 91.4886Z" fill="white"/>
</svg>
